#!OML:ASF F:\VICON\USERDATA\INSTALL\rory3\rory3.ASF
:FULLY-SPECIFIED
:DEGREES
853
root 3.39101 16.5165 0.570405 10.7544 5.63606 5.74486
lowerback -5.34832 2.13256 -0.280224
upperback 0.700982 2.9686 -2.70188
thorax 3.85322 1.50177 -2.37713
lowerneck 1.3183 8.84701 3.86621
upperneck 57.5208 12.7782 6.15008
head 25.6739 6.43526 5.33848
rclavicle -2.82523e-014 3.85642e-014
rhumerus -43.7819 3.29376 -88.3215
rradius 59.9403
rwrist -48.112
rhand -7.81029 -44.6433
rfingers 7.12502
rthumb 18.0914 -73.8219
lclavicle -2.82523e-014 3.85642e-014
lhumerus -21.6794 -4.21724 86.4673
lradius 37.2423
lwrist 71.8855
lhand -42.8005 -12.9707
lfingers 7.12502
lthumb -15.6662 16.4151
rfemur -51.97 15.7818 3.99631
rtibia 75.6895
rfoot 7.55697 14.4416
rtoes -30.5544
lfemur -29.4334 -7.95583 -32.4268
ltibia 45.7008
lfoot -22.4419 13.8482
ltoes 8.79055
854
root 3.39303 16.5185 0.574817 10.7056 5.7916 5.68925
lowerback -5.34483 2.08386 -0.168925
upperback 0.704743 2.89533 -2.6785
thorax 3.85636 1.4675 -2.42191
lowerneck 1.354 8.84781 3.84187
upperneck 57.5265 12.7727 6.17219
head 25.6542 6.43213 5.34977
rclavicle -3.27746e-014 7.7526e-015
rhumerus -43.8053 3.26542 -88.3075
rradius 59.9627
rwrist -48.0702
rhand -7.47888 -46.6976
rfingers 7.12502
rthumb 18.4102 -75.8464
lclavicle -3.27746e-014 7.7526e-015
lhumerus -21.5779 -4.24112 86.5127
lradius 37.0927
lwrist 71.7785
lhand -42.6712 -13.3115
lfingers 7.12502
lthumb -15.5417 16.084
rfemur -51.8142 15.6696 4.12133
rtibia 75.6588
rfoot 7.40393 14.4835
rtoes -30.7478
lfemur -29.376 -8.02006 -32.3591
ltibia 45.7204
lfoot -22.3483 13.8551
ltoes 9.91707
855
root 3.39528 16.5198 0.581043 10.6886 5.88032 5.67335
lowerback -5.32569 2.06579 -0.0743844
upperback 0.694467 2.86476 -2.6866
thorax 3.83872 1.4544 -2.48691
lowerneck 1.30249 8.84408 3.78079
upperneck 57.5397 12.7617 6.21462
head 25.6726 6.41621 5.39129
rclavicle -3.80176e-015 8.94531e-015
rhumerus -43.8567 3.22106 -88.3049
rradius 60.009
rwrist -48.0292
rhand -7.65436 -45.9942
rfingers 7.12502
rthumb 18.2414 -75.1588
lclavicle -3.80176e-015 8.94531e-015
lhumerus -21.4437 -4.16842 86.525
lradius 36.8758
lwrist 71.4363
lhand -41.8644 -13.4677
lfingers 7.12502
lthumb -14.7645 15.9864
rfemur -51.6967 15.5749 4.17492
rtibia 75.6348
rfoot 7.34491 14.4963
rtoes -30.4832
lfemur -29.2991 -8.08922 -32.3439
ltibia 45.7037
lfoot -22.3242 13.8319
ltoes 9.19229
856
root 3.39454 16.5185 0.585426 10.6511 5.93634 5.66686
lowerback -5.14373 2.04733 0.000975064
upperback 0.609465 2.83151 -2.71986
thorax 3.65203 1.43892 -2.57435
lowerneck 1.28429 8.86253 3.69726
upperneck 57.6464 12.7264 6.42222
head 25.7565 6.3946 5.54388
rclavicle 2.20651e-014 7.7526e-015
rhumerus -44.0089 3.19409 -88.3641
rradius 60.0434
rwrist -48.0643
rhand -7.54015 -46.7889
rfingers 7.12502
rthumb 18.3513 -75.9433
lclavicle 2.20651e-014 7.7526e-015
lhumerus -21.4705 -3.94407 86.4279
lradius 36.3152
lwrist 69.9642
lhand -39.6547 -13.6971
lfingers 7.12502
lthumb -12.6349 15.9007
rfemur -51.605 15.5391 4.21815
rtibia 75.6336
rfoot 7.37087 14.4917
rtoes -30.4245
lfemur -29.2126 -8.15791 -32.3318
ltibia 45.6952
lfoot -22.3529 13.8213
ltoes 8.40948
857
root 3.39069 16.5206 0.587735 10.6112 5.94299 5.62825
lowerback -5.03038 2.01622 -0.00490025
upperback 0.569471 2.78664 -2.69647
thorax 3.54312 1.4156 -2.55521
lowerneck 1.28182 8.9024 3.55908
upperneck 57.7044 12.7353 6.59885
head 25.7592 6.38068 5.67818
rclavicle -1.34677e-014 -2.18663e-015
rhumerus -44.0916 3.22132 -88.3934
rradius 60.0871
rwrist -48.0818
rhand -7.47413 -47.2054
rfingers 7.12502
rthumb 18.4148 -76.3538
lclavicle -1.34677e-014 -2.18663e-015
lhumerus -21.5272 -3.88523 86.4061
lradius 36.4475
lwrist 70.3342
lhand -40.256 -13.3041
lfingers 7.12502
lthumb -13.2145 16.257
rfemur -51.5501 15.5981 4.29935
rtibia 75.6205
rfoot 7.30669 14.567
rtoes -30.9365
lfemur -29.1567 -8.10457 -32.2804
ltibia 45.6821
lfoot -22.3607 13.7657
ltoes 8.40361
858
root 3.38446 16.5191 0.590829 10.5487 5.95799 5.59018
lowerback -5.01289 1.97587 -0.0787767
upperback 0.618785 2.73583 -2.63377
thorax 3.57521 1.38843 -2.45282
lowerneck 1.24017 8.93269 3.44046
upperneck 57.7029 12.7847 6.63106
head 25.7377 6.37539 5.72501
rclavicle 5.4467e-014 -2.16675e-014
rhumerus -44.0498 3.28067 -88.3748
rradius 60.1375
rwrist -48.0877
rhand -7.44589 -47.4312
rfingers 7.12502
rthumb 18.4419 -76.577
lclavicle 5.4467e-014 -2.16675e-014
lhumerus -21.5721 -3.97384 86.4328
lradius 36.648
lwrist 70.6966
lhand -40.6228 -13.1671
lfingers 7.12502
lthumb -13.5681 16.3708
rfemur -51.4502 15.6529 4.41446
rtibia 75.6162
rfoot 7.07324 14.6185
rtoes -31.449
lfemur -29.0532 -7.99056 -32.2358
ltibia 45.6607
lfoot -22.3739 13.7574
ltoes 7.99399
859
root 3.37915 16.5135 0.595994 10.4923 5.96857 5.57636
lowerback -5.01593 1.93791 -0.156192
upperback 0.658966 2.68924 -2.58873
thorax 3.61056 1.36338 -2.36588
lowerneck 1.23876 8.94924 3.46032
upperneck 57.751 12.8403 6.58048
head 25.8179 6.38838 5.71557
rclavicle -7.20594e-016 -1.98785e-014
rhumerus -44.0333 3.3444 -88.383
rradius 60.1327
rwrist -48.0738
rhand -7.42248 -47.5563
rfingers 7.12502
rthumb 18.4645 -76.7
lclavicle -7.20594e-016 -1.98785e-014
lhumerus -21.695 -4.04988 86.4239
lradius 36.8507
lwrist 70.919
lhand -40.7334 -12.9256
lfingers 7.12502
lthumb -13.6747 16.6051
rfemur -51.3505 15.6878 4.48904
rtibia 75.6262
rfoot 7.02802 14.5178
rtoes -31.0424
lfemur -28.9364 -7.94423 -32.2216
ltibia 45.6322
lfoot -22.3865 13.8545
ltoes 8.08992
